<svg xmlns="http://www.w3.org/2000/svg" width="640" height="420" viewBox="0 0 640 420">
<rect width="100%" height="100%" fill="#ffffff"/>
<text x="320.0" y="28" text-anchor="middle" font-family="Arial" font-size="18" font-weight="700">Throughput comparison</text>
<line x1="72" y1="348" x2="612" y2="348" stroke="#222" stroke-width="1"/>
<line x1="72" y1="54" x2="72" y2="348" stroke="#222" stroke-width="1"/>
<text x="18" y="201.0" transform="rotate(-90 18 201.0)" text-anchor="middle" font-family="Arial" font-size="13">Throughput</text>
<line x1="68" y1="348.0" x2="72" y2="348.0" stroke="#222"/>
<text x="64" y="352.0" text-anchor="end" font-family="Arial" font-size="11">0.0</text>
<line x1="68" y1="274.5" x2="72" y2="274.5" stroke="#222"/>
<text x="64" y="278.5" text-anchor="end" font-family="Arial" font-size="11">13.0</text>
<line x1="72" y1="274.5" x2="612" y2="274.5" stroke="#e5e5e5"/>
<line x1="68" y1="201.0" x2="72" y2="201.0" stroke="#222"/>
<text x="64" y="205.0" text-anchor="end" font-family="Arial" font-size="11">26.1</text>
<line x1="72" y1="201.0" x2="612" y2="201.0" stroke="#e5e5e5"/>
<line x1="68" y1="127.5" x2="72" y2="127.5" stroke="#222"/>
<text x="64" y="131.5" text-anchor="end" font-family="Arial" font-size="11">39.1</text>
<line x1="72" y1="127.5" x2="612" y2="127.5" stroke="#e5e5e5"/>
<line x1="68" y1="54.0" x2="72" y2="54.0" stroke="#222"/>
<text x="64" y="58.0" text-anchor="end" font-family="Arial" font-size="11">52.1</text>
<line x1="72" y1="54.0" x2="612" y2="54.0" stroke="#e5e5e5"/>
<rect x="98.0" y="92.3" width="145.3" height="255.7" fill="#4c78a8"/>
<text x="170.7" y="86.3" text-anchor="middle" font-family="Arial" font-size="11">45.31</text>
<text x="170.7" y="372" text-anchor="middle" font-family="Arial" font-size="12">dsd</text>
<rect x="269.3" y="99.9" width="145.3" height="248.1" fill="#f58518"/>
<text x="342.0" y="93.9" text-anchor="middle" font-family="Arial" font-size="11">43.97</text>
<text x="342.0" y="372" text-anchor="middle" font-family="Arial" font-size="12">fsd</text>
<rect x="440.7" y="108.8" width="145.3" height="239.2" fill="#54a24b"/>
<text x="513.3" y="102.8" text-anchor="middle" font-family="Arial" font-size="11">42.39</text>
<text x="513.3" y="372" text-anchor="middle" font-family="Arial" font-size="12">rule_based</text>
</svg>